<svg width="75" height="79" viewBox="0 0 75 79" xmlns="http://www.w3.org/2000/svg">
<path d="M9.47583 22.037C-3.18897 39.7309 -2.97431 61.3807 9.01584 71.6229C9.16917 71.7455 9.3225 71.8682 9.47583 71.9909V22.0063V22.037Z" fill="black"/>
<path d="M49.8302 43.0998V0.260316C45.5984 -0.29166 41.1519 0.0149954 36.8588 1.36427C32.2283 2.80554 27.6285 5.16677 23.3047 8.26398L49.8302 43.1305V43.0998Z" fill="black"/>
<path d="M24.5938 34.1143V78.3337C25.2377 78.395 25.851 78.4257 26.4643 78.4257C27.2616 78.4257 28.0896 78.4257 28.9176 78.3337C36.4613 77.7511 44.2502 74.5312 51.3339 69.2261L24.5938 34.1449V34.1143Z" fill="black"/>
<path d="M64.9492 6.7915V55.0894C69.825 48.0977 73.0449 40.4621 74.1182 33.0717C75.6208 22.7988 71.3889 12.5259 64.9492 6.82218V6.7915Z" fill="black"/>
</svg>
