<svg id="Layer_1" data-name="Layer 1" xmlns="http://www.w3.org/2000/svg" xmlns:xlink="http://www.w3.org/1999/xlink" viewBox="0 0 317.61 351.5"><defs><style>.cls-1,.cls-2,.cls-3,.cls-4{fill-rule:evenodd;}.cls-1{fill:url(#Безымянный_градиент_16);}.cls-2{fill:url(#Новый_образец_градиентной_зал_5);}.cls-3{fill:url(#Новый_образец_градиентной_зал_6);}.cls-4{fill:url(#Новый_образец_градиентной_зал_6-2);}</style><linearGradient id="Безымянный_градиент_16" x1="158.8" y1="66.47" x2="158.8" y2="285.03" gradientUnits="userSpaceOnUse"><stop offset="0" stop-color="#00c7d9"/><stop offset="1" stop-color="#195fff"/></linearGradient><linearGradient id="Новый_образец_градиентной_зал_5" x1="215.59" y1="162.39" x2="202.94" y2="140.47" gradientUnits="userSpaceOnUse"><stop offset="0" stop-color="#0673bf" stop-opacity="0"/><stop offset="1" stop-color="#0673bf"/></linearGradient><linearGradient id="Новый_образец_градиентной_зал_6" x1="147.2" y1="269.84" x2="138.83" y2="255.35" gradientUnits="userSpaceOnUse"><stop offset="0.2" stop-color="#0f54d0" stop-opacity="0"/><stop offset="1" stop-color="#0f54d0"/></linearGradient><linearGradient id="Новый_образец_градиентной_зал_6-2" x1="113.59" y1="250.39" x2="105.23" y2="235.9" xlink:href="#Новый_образец_градиентной_зал_6"/></defs><path class="cls-1" d="M99.92,219.51V154.19c0-8.79,2.35-13.95,10.07-18.41l57.24-33c0-15.57,0,12.56,0-17a1.31,1.31,0,0,0-2.11-1.13L85.74,130.42a5.08,5.08,0,0,0-2.58,4.36c0,30.47,0,61.58,0,92.05A1.31,1.31,0,0,0,85.27,228Zm0,19.46L92,243.55a16.69,16.69,0,0,1-25.67-14.06V134.77c0-8.8,2.36-14,10.08-18.42l82-47.26a16.69,16.69,0,0,1,25.67,14.06v9.92L192,88.52a16.68,16.68,0,0,1,25.67,14.06v9.92l7.94-4.59A16.69,16.69,0,0,1,251.3,122v94.76c0,8.79-2.36,13.95-10.08,18.41l-82,47.26a16.69,16.69,0,0,1-25.67-14.06v-10L125.59,263A16.69,16.69,0,0,1,99.92,248.9Zm100.92-97.28-67.27,38.84V161.06l67.26-38.83c0-15.31,0,12.46,0-17a1.31,1.31,0,0,0-2.11-1.12l-79.38,45.74a5.07,5.07,0,0,0-2.59,4.36c0,18.26,0,37.3,0,55.57L184,170.94V190.4l-67.27,38.84c0,15.31,0-12.45,0,17a1.31,1.31,0,0,0,2.11,1.13l79.38-45.74a5.09,5.09,0,0,0,2.58-4.37C200.85,179,200.84,160,200.84,141.69Zm33.6-17.06a1.31,1.31,0,0,0-2.11-1.13L217.69,132v65.33c0,8.79-2.36,14-10.08,18.41l-57.23,33c0,15.58,0-12.52,0,17a1.31,1.31,0,0,0,2.11,1.12l79.37-45.74a5.07,5.07,0,0,0,2.59-4.36C234.46,186.25,234.43,155.1,234.44,124.63Z"/><path class="cls-2" d="M217.69,161.18V132l-16.85,9.73c0,17.07,0,12.06,0,29.22Z"/><path class="cls-3" d="M150.38,265.7c0-29.47,0-1.71,0-17l-16.85,9.73v9.94a16.63,16.63,0,0,0,2.12,8.15L152.14,267a1.28,1.28,0,0,1-1.76-1.29"/><path class="cls-4" d="M116.77,246.25c0-29.46,0-1.7,0-17L99.92,239v9.93a16.64,16.64,0,0,0,2.12,8.16l16.49-9.52a1.28,1.28,0,0,1-1.76-1.29"/></svg>